<svg clip-rule="evenodd" fill-rule="evenodd" stroke-linecap="round" stroke-linejoin="round" stroke-miterlimit="1.5" viewBox="0 0 1025 836" xmlns="http://www.w3.org/2000/svg" xmlns:xlink="http://www.w3.org/1999/xlink"><clipPath id="a"><path clip-rule="evenodd" d="m-.5-.5h1025v835.61h-1025z"/></clipPath><g transform="translate(.5 .5)"><path d="m-.5-.5h1025v835.61h-1025z" fill="none"/><g clip-path="url(#a)"><path d="m488.573 835.61h-487.573l285.186-287.802v44.759l217.435-201.203v46.23l223.076-211.248v47.958l298.303-273.304-300.576 607.723v-67.492l-145.871 230.039v-59.782zm-41.078-108.573v-115.273l-34.14 32.969v30.623l17.135-16.546v51.785l-29.245 28.241v-103.571l29.245-28.241v5.228l17.005-16.422v-38.092l-63.255 61.085v169.299zm65.574-63.324v-126.974l-51.016 49.266v32.864l34.011-32.844v16.432l-34.011 32.844v77.678zm-17.005-16.442-17.006 16.422v-16.432l17.006-16.422zm82.708-47.006v-77.679l-34.011 32.844v-16.432l17.005-16.422v4.731l17.006-16.422v-37.594l-51.017 49.265v77.679l34.011-32.844v16.432l-17.005 16.422v-4.731l-17.006 16.422v37.595zm63.255-61.085v-37.594l-17.006 16.422v4.73l-14.557 14.058v-61.246l14.557-14.058v4.73l17.006-16.422v-37.594l-48.569 46.902v126.974zm63.255-61.085v-126.974l-51.017 49.266v32.864l34.011-32.844v16.432l-34.011 32.844v77.678zm-17.006-16.441-17.005 16.421v-16.431l17.005-16.422zm82.708-47.007v-126.974l-51.016 49.266v126.974l17.006-16.422v-94.11l17.005-16.422v94.11z" fill="#f5d33c" stroke="#f5d33c" transform="translate(-.5 -.5)"/></g></g></svg>